<svg xmlns="http://www.w3.org/2000/svg" xmlns:xlink="http://www.w3.org/1999/xlink" viewBox="0 0 768 768"><defs><style>.a{clip-path:url(#b);}.b{fill:rgba(255,235,0,0.8);}.b,.d,.e,.f{stroke:#000;}.c{font-size:21px;font-family:Roboto-Black, Roboto;font-weight:800;}.d{fill:rgba(216,33,33,0.8);}.e{fill:rgba(0,255,59,0.8);}.f,.i{fill:none;}.f{stroke-width:2px;}.g{font-size:25px;font-family:Roboto-Bold, Roboto;font-weight:700;}.h{stroke:none;}.j{fill:#fff;}</style><clipPath id="b"><rect width="768" height="768"/></clipPath></defs><g id="a" class="a"><rect class="j" width="768" height="768"/><g transform="translate(-26.5 27)"><g transform="translate(128)"><g class="b"><rect class="h" width="128" height="128"/><rect class="i" x="0.5" y="0.5" width="127" height="127"/></g><text class="c" transform="translate(65 72)"><tspan x="-35.653" y="0">Risk #3</tspan></text></g><g transform="translate(256)"><g class="b"><rect class="h" width="128" height="128"/><rect class="i" x="0.5" y="0.5" width="127" height="127"/></g><text class="c" transform="translate(65 72)"><tspan x="-35.653" y="0">Risk #5</tspan></text></g><g transform="translate(384)"><g class="d"><rect class="h" width="128" height="128"/><rect class="i" x="0.5" y="0.5" width="127" height="127"/></g><text class="c" transform="translate(65 72)"><tspan x="-35.653" y="0">Risk #2</tspan></text></g><g transform="translate(512)"><g class="d"><rect class="h" width="128" height="128"/><rect class="i" x="0.5" y="0.5" width="127" height="127"/></g></g><g transform="translate(640)"><g class="d"><rect class="h" width="128" height="128"/><rect class="i" x="0.5" y="0.5" width="127" height="127"/></g></g><g transform="translate(128 128)"><g class="b"><rect class="h" width="128" height="128"/><rect class="i" x="0.5" y="0.5" width="127" height="127"/></g></g><g transform="translate(256 128)"><g class="b"><rect class="h" width="128" height="128"/><rect class="i" x="0.5" y="0.5" width="127" height="127"/></g></g><g transform="translate(384 128)"><g class="b"><rect class="h" width="128" height="128"/><rect class="i" x="0.5" y="0.5" width="127" height="127"/></g></g><g transform="translate(512 128)"><g class="d"><rect class="h" width="128" height="128"/><rect class="i" x="0.5" y="0.5" width="127" height="127"/></g></g><g transform="translate(640 128)"><g class="d"><rect class="h" width="128" height="128"/><rect class="i" x="0.5" y="0.5" width="127" height="127"/></g></g><g transform="translate(128 256)"><g class="e"><rect class="h" width="128" height="128"/><rect class="i" x="0.5" y="0.5" width="127" height="127"/></g><text class="c" transform="translate(65 72)"><tspan x="-35.653" y="0">Risk #4</tspan></text></g><g transform="translate(256 256)"><g class="b"><rect class="h" width="128" height="128"/><rect class="i" x="0.5" y="0.5" width="127" height="127"/></g></g><g transform="translate(384 256)"><g class="b"><rect class="h" width="128" height="128"/><rect class="i" x="0.5" y="0.5" width="127" height="127"/></g></g><g transform="translate(512 256)"><g class="b"><rect class="h" width="128" height="128"/><rect class="i" x="0.5" y="0.5" width="127" height="127"/></g></g><g transform="translate(640 256)"><g class="d"><rect class="h" width="128" height="128"/><rect class="i" x="0.5" y="0.5" width="127" height="127"/></g></g><g transform="translate(128 384)"><g class="e"><rect class="h" width="128" height="128"/><rect class="i" x="0.5" y="0.5" width="127" height="127"/></g></g><g transform="translate(256 384)"><g class="e"><rect class="h" width="128" height="128"/><rect class="i" x="0.5" y="0.5" width="127" height="127"/></g></g><g transform="translate(384 384)"><g class="b"><rect class="h" width="128" height="128"/><rect class="i" x="0.5" y="0.5" width="127" height="127"/></g></g><g transform="translate(512 384)"><g class="b"><rect class="h" width="128" height="128"/><rect class="i" x="0.5" y="0.5" width="127" height="127"/></g></g><g transform="translate(640 384)"><g class="b"><rect class="h" width="128" height="128"/><rect class="i" x="0.5" y="0.5" width="127" height="127"/></g></g><g transform="translate(128 512)"><g class="e"><rect class="h" width="128" height="128"/><rect class="i" x="0.5" y="0.5" width="127" height="127"/></g></g><g transform="translate(256 512)"><g class="e"><rect class="h" width="128" height="128"/><rect class="i" x="0.5" y="0.5" width="127" height="127"/></g></g><g transform="translate(384 512)"><g class="e"><rect class="h" width="128" height="128"/><rect class="i" x="0.5" y="0.5" width="127" height="127"/></g><text class="c" transform="translate(64 72)"><tspan x="-35.653" y="0">Risk #1</tspan></text></g><g transform="translate(512 512)"><g class="b"><rect class="h" width="128" height="128"/><rect class="i" x="0.5" y="0.5" width="127" height="127"/></g></g><g transform="translate(640 512)"><g class="b"><rect class="h" width="128" height="128"/><rect class="i" x="0.5" y="0.5" width="127" height="127"/></g></g><g transform="translate(0 -2.5)"><line class="f" x2="575" transform="translate(160.5 681.5)"/><line class="f" x2="12" y2="7" transform="translate(723 674.5)"/><line class="f" y1="7" x2="12" transform="translate(723 681.5)"/></g><g transform="translate(-592.5 768.5) rotate(-90)"><line class="f" x2="575" transform="translate(160.5 681.5)"/><line class="f" x2="12" y2="7" transform="translate(723 674.5)"/><line class="f" y1="7" x2="12" transform="translate(723 681.5)"/></g><text class="g" transform="translate(76.5 320.5) rotate(-90)"><tspan x="-53.271" y="0">IMPATTO</tspan></text><text class="g" transform="translate(448 709)"><tspan x="-78.326" y="0">PROBABILITÀ</tspan></text></g></g></svg>